# xmcd
#
# Track frame offsets: 
#        150
#        21699
#        41217
#        59217
#        74739
#        91267
#        108110
#        124933
#        143269
#        161089
#        177995
#        193964
#        207276
#        223210
#        238547
#        255465
#        271861
#        287436
#        305074
#        322562
#
# Disc length: 4518 seconds
#
# Revision: 0
# Processed by: cddbd v1.5.2PL0 Copyright (c) Steve Scherf et al.
# Submitted via: ExactAudioCopy v0.95a5
#
DISCID=3511a414
DTITLE=Виагра - Цветок и нож
DYEAR=2006
DGENRE=pop
TTITLE0=Цветок и нож
TTITLE1=Обмани, но останься
TTITLE2=ЛМЛ
TTITLE3=Бриллианты
TTITLE4=Океан и три реки
TTITLE5=Биология
TTITLE6=Стоп! Стоп! Стоп!
TTITLE7=Сто шагов назад (вместе с В.Меладзе)
TTITLE8=Мир, о котором я не знала до тебя
TTITLE9=Убей мою подругу
TTITLE10=Не оставляй меня, любимый
TTITLE11=Не надо
TTITLE12=Good Morning! Папа
TTITLE13=Попытка №5
TTITLE14=Я не вернусь
TTITLE15=Заклинание
TTITLE16=Бомба
TTITLE17=В этом ты профессор
TTITLE18=Что же я наделала?
TTITLE19=Я не поняла (вместе с В.Сердючкой)
EXTD=
EXTT0=
EXTT1=
EXTT2=
EXTT3=
EXTT4=
EXTT5=
EXTT6=
EXTT7=
EXTT8=
EXTT9=
EXTT10=
EXTT11=
EXTT12=
EXTT13=
EXTT14=
EXTT15=
EXTT16=
EXTT17=
EXTT18=
EXTT19=
PLAYORDER=
